<?xml version='1.0' encoding='UTF-8'?>
<svg xmlns="http://www.w3.org/2000/svg" width="100%" height="100%" viewBox="3570 2570 3040 1640" preserveAspectRatio="xMidYMid meet">

<defs>
<linearGradient id="strokeGradient" x1="0%" y1="0%" x2="0%" y2="100%">
    <stop offset="0%" stop-color="#7450aa"/>
    <stop offset="100%" stop-color="#6776e0"/>
</linearGradient>

<style>
.textWhite { fill:#ffffff; }
</style>
</defs>

<!-- Рамка -->
<rect x="3633" y="2599" width="1353" height="1350" rx="170" fill="none" stroke="url(#strokeGradient)" stroke-width="56"/>

<!-- Текст и элементы -->
<g aria-label="IRRing"><path d="M203 42Q203 -6 143 -6Q84 -6 84 42V751Q84 799 143 799Q203 799 203 751Z" fill="#ffffff" transform="matrix(1.022499 0.0 0.0 -1.022499 3486.089 3692.862)"/><path d="M363 329H286Q269 329 259.5 342.5Q250 356 250 379Q250 430 292 430H409Q446 430 461.0 451.0Q476 472 476 497V626Q476 651 461.0 672.0Q446 693 409 693H198V41Q198 -7 139 -7Q80 -7 80 41V734Q80 770 98.5 782.0Q117 794 143 794H434Q460 794 488.0 783.0Q516 772 542 755H541Q567 736 581.0 705.5Q595 675 595 635V489Q595 408 541 368Q530 360 517.5 353.0Q505 346 492 339L652 75Q655 70 658.0 62.0Q661 54 661 49Q661 25 627 3V4Q604 -10 588 -10Q565 -10 551 13L552 12Z" fill="#ffffff" transform="matrix(1.022499 0.0 0.0 -1.022499 3775.456217 3692.862)"/><path d="M363 329H286Q269 329 259.5 342.5Q250 356 250 379Q250 430 292 430H409Q446 430 461.0 451.0Q476 472 476 497V626Q476 651 461.0 672.0Q446 693 409 693H198V41Q198 -7 139 -7Q80 -7 80 41V734Q80 770 98.5 782.0Q117 794 143 794H434Q460 794 488.0 783.0Q516 772 542 755H541Q567 736 581.0 705.5Q595 675 595 635V489Q595 408 541 368Q530 360 517.5 353.0Q505 346 492 339L652 75Q655 70 658.0 62.0Q661 54 661 49Q661 25 627 3V4Q604 -10 588 -10Q565 -10 551 13L552 12Z" fill="#ffffff" transform="matrix(1.022499 0.0 0.0 -1.022499 4464.620543 3692.862)"/><path d="M184 42Q184 -6 129 -6Q73 -6 73 42V558Q73 606 129 606Q184 606 184 558ZM205 732Q205 700 183.0 678.0Q161 656 129 656Q97 656 74.5 678.0Q52 700 52 732Q52 765 74.5 787.0Q97 809 129 809Q161 809 183.0 787.0Q205 765 205 732Z" fill="#ffffff" transform="matrix(1.022499 0.0 0.0 -1.022499 5153.784869 3692.862)"/><path d="M181 42Q181 -6 126 -6Q71 -6 71 42V444Q71 485 84.0 515.0Q97 545 125 564Q178 602 231 602H392Q443 602 498 564Q552 526 552 444V42Q552 -6 497 -6Q442 -6 442 42V435Q442 461 426 485L427 484Q414 508 374 508H249Q208 508 195 484Q181 463 181 435Z" fill="#ffffff" transform="matrix(1.022499 0.0 0.0 -1.022499 5411.454617 3692.862)"/><path d="M232 70Q206 70 178.5 79.0Q151 88 125 105Q71 140 71 223V449Q71 491 85.5 521.0Q100 551 125 568Q151 584 178.0 593.0Q205 602 231 602H399Q424 602 451.0 591.0Q478 580 501 563Q524 544 538.0 513.0Q552 482 552 443V19Q552 -23 538.5 -52.5Q525 -82 501 -102Q478 -121 451.5 -131.5Q425 -142 399 -142H231Q178 -142 124 -111Q96 -95 83.5 -70.0Q71 -45 71 -12V0Q71 20 84.0 32.0Q97 44 125 44Q181 38 181 0V-11Q181 -22 196.5 -35.0Q212 -48 249 -48H374Q411 -48 426.5 -27.0Q442 -6 442 20V442Q442 467 426.5 487.5Q411 508 374 508H249Q212 508 196.5 487.5Q181 467 181 442V231Q181 206 196.5 184.5Q212 163 249 163H353Q389 163 389 117Q389 96 380.5 83.0Q372 70 353 70Z" fill="#ffffff" transform="matrix(1.022499 0.0 0.0 -1.022499 6035.179007000001 3692.862)"/></g><g aria-label="TECHNOLOGIES"><path d="M239 0V642H29V720H537V642H327V0Z" fill="#ffffff" transform="matrix(0.26100599999999996 0.0 0.0 -0.26100599999999996 4157.105 4165.151)"/><path d="M92 0V720H536V642H180V410H493V335H180V77H539V0Z" fill="#ffffff" transform="matrix(0.26100599999999996 0.0 0.0 -0.26100599999999996 4304.57339 4165.151)"/><path d="M534 128 560 55Q471 -12 356 -12Q220 -12 137.5 82.5Q55 177 55 353Q55 533 141.5 632.5Q228 732 369 732Q476 732 558 671L532 591Q445 654 365 654Q264 654 203.5 578.5Q143 503 143.0 358.0Q143 213 203.5 138.5Q264 64 365 64Q451 64 534 128Z" fill="#ffffff" transform="matrix(0.26100599999999996 0.0 0.0 -0.26100599999999996 4458.044918 4165.151)"/><path d="M92 0V720H180V412H526V720H614V0H526V335H180V0Z" fill="#ffffff" transform="matrix(0.26100599999999996 0.0 0.0 -0.26100599999999996 4616.214553999999 4165.151)"/><path d="M92 0V720H189L538 173V720H620V0H548L174 587V0Z" fill="#ffffff" transform="matrix(0.26100599999999996 0.0 0.0 -0.26100599999999996 4800.4847899999995 4165.151)"/><path d="M661 362Q661 184 576.5 86.0Q492 -12 356 -12Q222 -12 138.5 85.0Q55 182 55 358Q55 536 139.5 634.0Q224 732 360 732Q494 732 577.5 635.0Q661 538 661 362ZM515.5 138.0Q573 212 573.0 359.0Q573 506 515.5 580.0Q458 654 358.0 654.0Q258 654 200.5 580.0Q143 506 143.0 359.0Q143 212 200.5 138.0Q258 64 358.0 64.0Q458 64 515.5 138.0Z" fill="#ffffff" transform="matrix(0.26100599999999996 0.0 0.0 -0.26100599999999996 4986.582068 4165.151)"/><path d="M92 0V720H180V78H503V0Z" fill="#ffffff" transform="matrix(0.26100599999999996 0.0 0.0 -0.26100599999999996 5173.72337 4165.151)"/><path d="M661 362Q661 184 576.5 86.0Q492 -12 356 -12Q222 -12 138.5 85.0Q55 182 55 358Q55 536 139.5 634.0Q224 732 360 732Q494 732 577.5 635.0Q661 538 661 362ZM515.5 138.0Q573 212 573.0 359.0Q573 506 515.5 580.0Q458 654 358.0 654.0Q258 654 200.5 580.0Q143 506 143.0 359.0Q143 212 200.5 138.0Q258 64 358.0 64.0Q458 64 515.5 138.0Z" fill="#ffffff" transform="matrix(0.26100599999999996 0.0 0.0 -0.26100599999999996 5312.578562 4165.151)"/><path d="M382 61Q452 61 517 91V305H362V377H601V54Q496 -12 373 -12Q225 -12 140.0 81.0Q55 174 55 352Q55 534 144.0 633.0Q233 732 381 732Q505 732 601 659L575 578Q480 654 379 654Q270 654 206.5 579.0Q143 504 143 355Q143 207 206.5 134.0Q270 61 382 61Z" fill="#ffffff" transform="matrix(0.26100599999999996 0.0 0.0 -0.26100599999999996 5499.719864 4165.151)"/><path d="M100 0V720H188V0Z" fill="#ffffff" transform="matrix(0.26100599999999996 0.0 0.0 -0.26100599999999996 5676.420926 4165.151)"/><path d="M92 0V720H536V642H180V410H493V335H180V77H539V0Z" fill="#ffffff" transform="matrix(0.26100599999999996 0.0 0.0 -0.26100599999999996 5751.590654 4165.151)"/><path d="M55 54 81 132Q185 64 281 64Q353 64 394.5 98.5Q436 133 436 192Q436 245 399.0 277.0Q362 309 309.0 325.5Q256 342 203.0 360.5Q150 379 113.0 420.5Q76 462 76 529Q76 622 139.5 677.0Q203 732 306 732Q415 732 505 668L479 587Q390 654 302 654Q239 654 201.5 623.0Q164 592 164 540Q164 498 190.5 470.0Q217 442 257.0 429.5Q297 417 344.0 400.0Q391 383 431.0 364.5Q471 346 497.5 305.0Q524 264 524 204Q524 105 457.0 46.5Q390 -12 279 -12Q158 -12 55 54Z" fill="#ffffff" transform="matrix(0.26100599999999996 0.0 0.0 -0.26100599999999996 5905.062182 4165.151)"/></g><rect x="3691" y="4062" width="404" height="24" fill="#ffffff"/>
<rect x="6086" y="4062" width="404" height="24" fill="#ffffff"/>

</svg>